<?xml version="1.0" encoding="UTF-8"?>
<svg id="Lager_1" data-name="Lager 1" xmlns="http://www.w3.org/2000/svg" viewBox="0 0 1000 1000">
  <defs>
    <style>
      .cls-1 {
        fill: #000;
        stroke-width: 0px;
      }
    </style>
  </defs>
  <path class="cls-1" d="M729.23,266.79c-21.93,61.88-28.88,80.68-18.21,148.65,26.02,54.76,27.22,11.98,22.95,91.24.65,11.61-7.8,18.39-15.65,25.33-11.23,16.21,15.89,29.79-2.97,51.56-5.19,13.1,24.1,27.09,8.37,48.77-1.02,1.1-.02,4.58.72,6.76,7.44,14.63-9.62,15.8-6.02,24.12,30.94,62.3,35.72,90.62,16.84,157.21-.8,1.52-1.2,2.8-1.26,3.88-4.23,9.58-10.77,18.02-16.53,26.31-.69.85-1.31,1.76-1.88,2.73-5.02,8.59-5.37,21.84,1.12,42.67,5.78,24.42-23.1,15.72-10.06,41.15,1.98,9.62.03,13.4-9.01,16.45-3.27,1.12-3.9,1.85-2.04,4.73,4.97,13.56-7.11,27.43-9.17,40.97-76.83,6.39-164.56-34.26-238.17-64.23-98.83-47.76-198.95-133.45-241.7-231.17,25.8-27.57,52.55-54.34,77.27-82.89,9.26-11.13,20.73-14.06,24.49-21.71l11.28-16.66c-.05-2.22-.03-4.41.08-6.58.88-3.19,1.28-6.49,1.02-9.87,1.73-10.89,5.37-21.33,10.41-31.6,8.34-28.43,4.03-51.37,27.06-75.24,15.27-30.56,5.69-68.97,20.41-100.59,1.37-3.66-.03-5.35-3.35-6.52-26.48-9.9-66.82-18.58-66.58-53.82-2.4-18.82,15.57-22.24,28.19-31.52,16.56-12.7,39.57-6.1,55.45-19.89,6.12-4.39,13.83-8.11,21.53-6.26,25.57.99,46.9-52.97,67.73-69.45,16.63-23.74,50.46-2.75,68.19-20.05,35.33-27.25,96.71-177.44,140.07-147.33,25.77,15.61,29.06,48.64,25.67,74.9.81,10.83-1.79,22.54,1.31,32.92,8.69-1.57,4.86-10.64,4.17-16.64-1.98-7.89,3.96-4.15,8.47-3.1,4.38,1.96,7.6,1.33,11.87-1.76,26.31-15.41,53.62,17.75,47.7,44.84-9.28,48.94-58.43,79.02-59.74,131.66Z"/>
</svg>