<?xml version="1.0" encoding="UTF-8"?>
<svg id="Lager_1" data-name="Lager 1" xmlns="http://www.w3.org/2000/svg" viewBox="0 0 1000 1000">
  <defs>
    <style>
      .cls-1 {
        fill: #000;
        stroke-width: 0px;
      }
    </style>
  </defs>
  <path class="cls-1" d="M184,663.01c.36.64.71,1.3,1.08,1.94l-9.05,13.38c.58-1.14.92-2.44,1-3.92.18-3.33-1-7.71-4.16-13.88-66.44-133.54-38.11-301.2,56.29-414.13,23.97-14.74-51.84-69.59-63.03-88.5-8.28-11.21-22.88,3.17-16.33,12.47,9.37,19.52-13.94,1.95-13.88-7.68,3-7.48,44.89-49.07,49.52-42.54,3.78,4.17,14.17,8.12,12.89,14.56-7.8,2.69-17.89-8.45-23.98,3.28,4.03,26.14,50.72,56.61,67.44,80.82,5.34,8.66,12.45-1.13,18.36,3.95-108.15,109.65-156.42,298.47-76.15,440.27Z"/>
  <path class="cls-1" d="M561.19,866.89c-23.78,2.77-47.1,1.22-56.66,13.18,4.63-6.66,9.87-13.43,13.27-21.12-.76,12.97,60.28-11.04,43.39,7.94Z"/>
  <path class="cls-1" d="M513.98,411.34c-17.61,49.68-23.19,64.78-14.62,119.35,20.89,43.96,21.85,9.62,18.43,73.25.53,9.32-6.26,14.76-12.57,20.34-9.02,13.02,12.76,23.92-2.39,41.4-4.17,10.52,19.35,21.75,6.72,39.15-.82.88-.01,3.68.58,5.42,5.98,11.75-7.72,12.68-4.83,19.37,24.84,50.02,28.68,72.75,13.52,126.22-.64,1.22-.96,2.24-1.01,3.12-3.4,7.69-8.64,14.47-13.27,21.12-.55.68-1.05,1.41-1.51,2.19-4.03,6.9-4.31,17.53.9,34.25,4.64,19.61-18.54,12.62-8.08,33.04,1.59,7.72.03,10.76-7.23,13.21-2.63.9-3.13,1.49-1.64,3.8,3.99,10.89-5.71,22.02-7.36,32.9-61.69,5.13-132.12-27.51-191.21-51.57-79.35-38.35-159.73-107.14-194.05-185.6,20.71-22.14,42.19-43.63,62.03-66.55,7.44-8.94,16.65-11.29,19.66-17.43l9.05-13.38c-.04-1.78-.03-3.54.06-5.28.71-2.56,1.03-5.21.82-7.93,1.39-8.75,4.31-17.12,8.36-25.37,6.69-22.83,3.23-41.24,21.72-60.4,12.26-24.53,4.57-55.38,16.39-80.76,1.1-2.94-.03-4.3-2.69-5.23-21.26-7.95-53.65-14.91-53.45-43.21-1.92-15.11,12.5-17.85,22.64-25.3,13.3-10.2,31.77-4.9,44.51-15.97,4.91-3.53,11.11-6.51,17.29-5.03,20.53.8,37.65-42.53,54.38-55.76,13.35-19.06,40.51-2.21,54.75-16.09,28.37-21.88,77.64-142.46,112.46-118.28,20.69,12.53,23.33,39.05,20.61,60.13.65,8.7-1.44,18.1,1.05,26.43,6.98-1.26,3.9-8.54,3.35-13.36-1.59-6.34,3.18-3.33,6.8-2.49,3.51,1.58,6.1,1.06,9.53-1.41,21.12-12.38,43.05,14.25,38.29,36-7.45,39.29-46.91,63.44-47.96,105.7Z"/>
  <path class="cls-1" d="M185.15,659.66c.13-2.68.41-5.31.82-7.93.21,2.72-.12,5.36-.82,7.93Z"/>
  <path class="cls-1" d="M870.87,501.46c.55-80.46-27.09-158.77-72.16-224.88-10.71-13.04-27.06-29.95-5.86-42,16.16-4.97-15.54,28.17,11.78,25.37,12.48-3.55,6.68-18.29,5.69-27.5-2.16-14.91,15.29-26.1,27.56-16.93,11.59,6.27,16.5,30-1.26,29.28-2.56-6.58,10.19-22.13-9.1-21.27-9.72,14.52,9.61,41.08-18.22,48.04-3.49.99-3.54,1.02-1.47,4.07,46.46,72.64,85.23,173.94,65.87,256.59-8.54-.03-1.18-23.98-2.83-30.78Z"/>
  <path class="cls-1" d="M521.24,113.4c-4.85,20.68,20.4,13.09,33.22,15.8,11.37,2.18,6.5-12.74,14.4-14.83,6.18,2.19,6.35,27.64-2.86,25.05-7.43-2.33-91.27.34-67.84-13.29,17.34,5.15,10.77-87.05,15.4-102.99,3.7-18.61-10.96-8.72-12.71-18.81,9.86-10.45,46.29,1.58,62.3-.55,5.13.33,6.57,1.49,6.91,6.43,2.24,8.75-3.17,24.38-7.88,7.87-3.81-10.79-19.97-4.86-28.95-7.09-10.69,2.5-4.36,21.31-6.76,29.92-3.55,9.09,31.44,11.28,31.96,3.89,10.24-21.14,7.29,17.02,6.45,22.82-1.88,4.87-7.85,2.87-7.56-1.91-.66-7.04-1.46-7.74-8.6-8.1-7.57,1.09-23.4-6.45-24,5.35-1.71,16.7-2.17,33.93-3.47,50.44Z"/>
  <path class="cls-1" d="M255.92,182.66c-1.28-14.5,19.44-33.73,29.54-21.68-3.75,8.88-25.53,2.96-15.46,25.57,18.71,24.64,45.87.69,13.26-34.32-17.59-19.69-19.37,9.77-28.98,10.32-14.03-17.04,30.44-38.92,39.91-17.75,8.76,9.1,12.27,29.95,26.93,29.52,2.42-.35,5.58-1.29,6.4,2.24,1.22,4.63-13.15,10.97-16.76,13.05-4.3-1.72-4.89,1.35-6.3,3.96-10.61,24.42-49.22,15.77-48.55-10.91Z"/>
  <path class="cls-1" d="M680.94,164.24c2.99-1.04,9.97.74,6.38,5.19-50.73,23.96-64.43-67.4-10.09-65.45,33.16-3.49,40.41,56.2,17.38,46.67-9.06-6.71-29.93-7.21-31.73-19.12,7.62-5.23,18.11,6.07,26.31,7.68,13.01,2,7.85-23.4-4.56-25.56-34.06-7.32-43.23,56.18-3.69,50.59Z"/>
  <path class="cls-1" d="M711.95,765.21c-15.58,5.07-.16-9.14,5.34-11.18,2.6-1.87,7.02.33,4.09,3.42-7.64,20.56,19.97,53.41,20.11,76.11-16.56-8.17-29.3-23.89-45.2-33.69,31.49,86.02,15.59,48.02-36.08,11.97-9.92-8.68-27.8,1.26-.71-17.36,2.43-1.37,5,1.15,3.61,3.47-5.72,7.37,30.79,28.06,37.39,34.47-3.25-18.36-14.84-35.25-17.08-54.02,16.33,9.85,29.62,24.25,45.31,35.04-3.49-16.12-9.32-33.4-16.79-48.24Z"/>
  <path class="cls-1" d="M402.41,107.73c-1.35-36.69,60.35-47.81,64.92-4.27.04,2.69-1.48,3.75-3.85,4.19-6.66.06-51.79,14.55-37.62-1.11,7.72-1.58,15.51-2.86,23.27-4.23,12.38-10.39-15.91-27.98-25.06-14.73-22.51,19.77,6.1,62.39,30.9,40.86,2.3-1.99,5.33-5.39,8.44-3.08,2.2,2.78-.5,6.55-2.71,8.55-28.35,25.59-55.78,1.87-58.28-26.17Z"/>
  <path class="cls-1" d="M337.2,175.71c-10.39,5.33-22.67-28.5-7.56-16.6,19.87,24.16,31.16-16.3,2.77-14.24-49.45-4.11-4.14-62.57,12.73-27.09.24,13.13-9.01-2.78-14.85-1.63-26.88,10.25,9.38,16.25,19.26,18.84,22.97,9.71,11.12,43.43-12.34,40.73Z"/>
  <path class="cls-1" d="M583.15,75.88c8.12,5.62,48.15,6.9,20.88,16.69-1.02,11.23,1.97,23.85,3.93,35.03,4.72-6.47,25.64-25.67,17.15-32.2-2.05-1.79-2.98-3.59-1.61-6.09,6.24-4.89,15.2,5.49,23.37,3.12,6.1-.61,5.08,9.17-.38,7.68-16.6-7.35-45.06,70.38-49.33,42.09-5.9-18,1.68-46.19-14.76-57.88-4.92-1.65-3.64-7.13.74-8.44Z"/>
  <path class="cls-1" d="M391,156.52c-20.47-2.71-18.47-31.79-26.46-46.69-.85-8.71-8.83.06-12.05-5.71.12-8.53,11.28-12.49,6.84-24.29-.94-6.43-3.87-12.72-4.72-19.12,1.05-6.73,7.49-2.07,7.73,2.54,5.76,10.78,4.06,36.24,21.56,25.54,4.31-1.84,7.1,5.5,2.96,7.03-3.34,2.68-12.7,1.42-10.86,7.65,5.23,6.86,8.69,46.36,19,37.47,14.01-20.19,8.32,13.9-4,15.59Z"/>
  <path class="cls-1" d="M772.42,239.57c-36.84-4.23,5.87-38.96,16.08-51.75,4.07-3.86-4.74-6.99-2.36-11.8,9-5.72,11.39,6.7,28.59-9.99,4.76-2.43,8-12.9,13.97-9.89,2.41,2.14,1.4,4.26-.24,6.14-6.19,10.85-30.57,22.24-14.68,32.71,2.8,2.89,3.2,4.58,1.39,6.52-6.49,6.58-12.75-12.94-18.11-3.7-8.41,10.64-20.39,19.18-25.91,31.69,3.47,2.82,11.59.4,12.68,4.66-.93,4.89-7.78,5.62-11.4,5.4Z"/>
  <path class="cls-1" d="M754.36,150.06c41.34,5.7-15.32,42.91-8.39,60.48,1.23,1.14.63,4.08-.07,4.97-7.98.19-13.83-10.08-22.21-11.7-2.39-.9-2.89-3.22-2.04-5.38,3.68-5.01,11.57,3.03,14.9-5.61,2.88-8.3,32.68-34.93,11.16-34.72-21.14,2.49-3.56-10.01,6.65-8.04Z"/>
  <path class="cls-1" d="M559.72,819.03c22.12-9.27,2.16,70.07,22.73,71.98,20.85,2.61,13.92-40.93-5.31-27.67-4.33.59-1.76-4.37.41-5.45,17.94-11.38,33.74,18.68,20.92,31.73-7.19,9.94-16.17,2.82-25.36,4.71-2.32,1.21-15.61,3.33-12.34-2.37,13.96-8.23.35-37.59,2.28-52.33-1.19-5.55,1.34-14.99-6.13-16.52-6.32-.4-1.9-5.7,2.8-4.09Z"/>
  <path class="cls-1" d="M743.57,141.64c-4.81,15.27-31.85,34.7-25.92,49.43,1.5,1.67,2.1,3.93.1,5.73-8.16,2.49-14-11.26-23.07-12.17-2.3-.91-3.43-2.79-2.39-5.12.95-2.13,2.97-3.35,5.26-2.15,13.76,2.55,19.55-23.14,28.54-31.54,1.92-2.86,1.89-5.48-.59-8.07-6.71-14.23,15.34-2.21,18.06,3.89Z"/>
  <path class="cls-1" d="M770.32,687.62c3.55,13.32,13.29,20.37,24.05,27.86,4.47,5.02,4.63-2.93,8.85-2.27,2.29,5.28-4.22,7.21,3.93,11.84,8.74,5.84,11.08,11.93,22.08,7.49-1.28,6.76-6.9,13.64-12.74,17.17.62-11.76-7.21-12.64-15.19-19.48-4.08-4.43-6.47.46-11.15.29,7.46-15.74-29.7-16.15-19.83-42.9Z"/>
  <path class="cls-1" d="M813.38,757.63c-4.43,4.63-7.38,12.16-13.87,14.05,1.67-16.93-32.2-31.57-43.55-44.84-3.4-4.59-8.01.09-11.93-1.17-1.91-3.07,3.49-4.78,4.52-7.42,2.88-3.98,3.64-4.21,7.46-1.09,9.25,7.54,18.4,15.19,27.6,22.79,8.48,4.26,16.09,19.81,26.1,15.9,1.79-1.34,4-.15,3.66,1.78Z"/>
  <path class="cls-1" d="M865.66,620.42c26.18-.81,25.45,38.87.65,38.68-26.02.26-26.83-39.05-.65-38.68ZM867.85,651.58c26.51-2.25,5.81-31.59-10.91-23.15-14.25,7.44-.18,24.06,10.91,23.15Z"/>
  <path class="cls-1" d="M879.8,614.43c-26.94,1.02-26.08-39.48-.54-38.87,25.89-.78,25.32,39.31.54,38.87ZM880.63,607.46c23.18-1.68,12.11-30.38-7.96-23.96-16.95,6.07-5.99,23.31,7.96,23.96Z"/>
  <path class="cls-1" d="M770,758.59c25.87-.38,25.97,39.68.14,39.01-24.43-.23-26.6-39.41-.14-39.01ZM773.08,791.32c21.15-.59,7.81-29.33-7.38-27.06-18.37,3.51-6,26.56,7.38,27.06Z"/>
  <path class="cls-1" d="M652.7,889.59c-.28,7.44-8.92,20.59-16.99,13.09,20.87-5.47,2.54-31.67,1.03-45.81-.92-5.34-5.95-3.02-8.75-6.47,3.87-3.09,14.52-7.27,14.86.54,3.43,13.21,8.01,24.89,9.85,38.65Z"/>
  <path class="cls-1" d="M829.18,673.31c2.29-27.12,23.98,6.28,35.3,1.5,7.77-.48-2.91,13.98-7.05,15.09.26-10.21-10.59-12.34-17.73-17.73-6.78-4.6-5.01,5.55-6.37,8.5-3.62,1.06-3.57-5.93-4.15-7.37Z"/>
  <path class="cls-1" d="M822.66,694.66c-3.03,15.19-11.61-23.01,7.63-12.82,7.74,2.45,15.41,15.19,23.56,10.3,7.71-.08-3.52,10.95-4.86,14.27-1.32,1.41-3.6,1.32-3.33-1.04,2.57-6.47-26.85-24.44-23.01-10.72Z"/>
  <path class="cls-1" d="M879.3,533.4c7.02-.82,17.51,4.91,22.39-1.42,6.06-3.32,2.1,10.9,2.71,14.28-.52,2.25-2.95,2.68-3.87.43-3.1-6.95-20.2-6.32-26.38-3.91-1.51,2.58,4.86,6.91,2.38,9.19-11.88-2.71-12.58-22.17,2.77-18.56Z"/>
  <path class="cls-1" d="M629.58,887.18c-15.79-.73-6.95-26.29-20.44-28.94-5.58-3.85,4.68-4.51,6.99-5.71,11.75-1.82,4.4,35.76,20.22,26.7,9.71-6.9-.82,9.9-6.77,7.96Z"/>
  <path class="cls-1" d="M902.74,554.1c-.44,3.47,2.08,18.72-3.9,13.16-.48-3.25-2.59-4.12-5.39-4.34-9.08-.08-18.95-4.37-25.26,3.3-9.89-17.22,15.13-11.64,25.03-10.9,5.21,2.79,8.62-8.91,10.72-1.35-.4.04-.8.08-1.2.12Z"/>
  <path class="cls-1" d="M834.84,721.23c-3.83-6.65-11.49-9.18-17.39-13.64-3.56-3.36-6.25.51-10.32-.15,4.38-24.99,23,8.57,34.59,2.88,8.54-1.29-2.96,13.23-6.56,15.22-.61-1.66-2.82-3.47-.32-4.31Z"/>
</svg>