<?xml version="1.0" encoding="UTF-8"?>
<svg id="Lager_1" data-name="Lager 1" xmlns="http://www.w3.org/2000/svg" viewBox="0 0 2000 500">
  <defs>
    <style>
      .cls-1, .cls-2 {
        font-family: PoorRichard-Regular, 'Poor Richard';
      }

      .cls-1, .cls-2, .cls-3 {
        fill: #1d1d1b;
      }

      .cls-2, .cls-4, .cls-5 {
        font-size: 140px;
      }

      .cls-4 {
        letter-spacing: -.05em;
      }

      .cls-6 {
        letter-spacing: -.05em;
      }

      .cls-6, .cls-7 {
        font-size: 120px;
      }

      .cls-3 {
        stroke-width: 0px;
      }

      .cls-8 {
        fill: none;
        stroke: #1d1d1b;
        stroke-miterlimit: 10;
        stroke-width: 10px;
      }
    </style>
  </defs>
  <path class="cls-3" d="M1040.73,188.37c-6.18,6.18-14.39,14.69-16.41,22.25-2.02,7.55-3.59,11.48-6.09,15.94s-6.43,9.83-7.19,12.55c-.77,2.72-3.33,29.72-.97,33.7,2.37,3.98,5.95,6.59,5.71,10.25-.24,3.66-2.4,8.81-2.42,10.76-.02,1.95,1.19,9.69-.33,11.45-1.52,1.76-8.35,5.47-7.96,7.9.39,2.43,2.5,4.65,1.84,8.25-.66,3.61-3.68,6.27-3.98,9.05-.3,2.78,1.89,2.62,2.69,4.88.81,2.27.22,3.5.86,5.31.64,1.81-1.09,3.55-1.84,4.33-.74.77-1.49,3.28-.92,4,.56.72,1.5,3.65.32,4.38-1.17.72-5.07.02-4.25,2.5.81,2.49,5.97,13.39,6.39,16.98.42,3.6-.43,6.96.24,8.56.67,1.6,2.52,4.21,1.32,8.62-1.2,4.41-3.99,11.21-5.02,14.34-1.04,3.12-1.38,7.63-2.77,10.06-1.38,2.43-7.25,7.13-8.54,9.13-1.29,2.01-2.92,4.62-2.19,7.53.59,2.38,2.02,6.15,1.45,9.45-.13.74-.35,1.46-.71,2.12-1.13,2.09-2.55,2.59-3.68,2.9-.14.04-.29.06-.44.06-6.47,0-12.98-.34-19.51-.99-51.42-5.15-97.76-30.01-130.48-70.01-6.46-7.89-12.23-16.19-17.3-24.82-.4-.67-.25-1.53.34-2.05.78-.68,1.78-1.55,2.93-2.55,9-7.8,27.69-23.85,30.43-24.82,3.63-1.28,6.88-3.05,7.57-5.13.7-2.08.11-4.32,3.3-5.66,3.2-1.34,3.58-4.33,4.58-8.98,1.01-4.64,6.4-9.61,6.6-14.79.21-5.18,2.98-10.04,6.12-14.42,3.14-4.37,5.18.21,6.98-10.84,1.81-11.06,10.22-26.49,7.38-28.14-2.82-1.65-18.9-8.41-20.78-14.28-1.87-5.86-1.99-11.96-.07-13.45,1.92-1.49,11.74-7.21,17.34-6.95,5.61.26,10.73.89,13.18-1.41,2.45-2.3,3.84-2.99,8.97-2.35,5.13.63,15.25-11.12,16.95-14.38,1.71-3.25,10.08-11.33,17.87-11.23,7.8.1,12.48,2.56,14.31,1.77,1.83-.78,29.56-30.3,32.64-34.26,3.09-3.96,9.57-12.48,13.89-14.11,4.32-1.64,10.99-1.24,14.79,4.87,3.8,6.11,4.37,13.76,2.85,19-1.09,3.75-2.15,10.75-2.67,14.41-.16,1.13.87,2.07,1.99,1.81h0c.76-.18,1.28-.88,1.25-1.66l-.15-3.32c-.06-1.28,1.32-2.13,2.44-1.48l1.76,1.02c.55.32,1.23.29,1.75-.08,1.34-.94,4.03-2.57,6.01-2.02,2.73.77,8.65,3.68,10.26,9.95,1.61,6.27-2.43,17.91-8.62,24.09Z"/>
  <circle class="cls-8" cx="984.82" cy="250" r="195.64"/>
  <text class="cls-2" transform="translate(50.33 283.3)"><tspan x="0" y="0">Taste Events</tspan></text>
  <text class="cls-1" transform="translate(1266.06 283.3)"><tspan class="cls-7" x="0" y="0">b</tspan><tspan class="cls-6" x="58.54" y="0">y</tspan><tspan class="cls-4" x="110.84" y="0"> </tspan><tspan class="cls-5" x="126.69" y="0">Wolfmoon</tspan></text>
</svg>