<?xml version="1.0" encoding="UTF-8"?>
<svg id="Lager_1" data-name="Lager 1" xmlns="http://www.w3.org/2000/svg" viewBox="0 0 1000 1000">
  <defs>
    <style>
      .cls-1 {
        fill: #1d1d1b;
        stroke-width: 0px;
      }
    </style>
  </defs>
  <g>
    <g>
      <path class="cls-1" d="M671.25,906.47c-1.88-4.56-5.23-7.83-10.09-9.83-4.84-1.99-9.86-2.38-15.07-1.16l-.71-.04.43-.64c2.16-1.93,3.64-3.99,4.41-6.2.78-2.2.73-4.35-.14-6.46-1.61-3.92-4.52-6.45-8.7-7.58-4.18-1.13-8.16-.92-11.91.62l-21.58,8.9c-.74.31-1.32.72-1.71,1.24-.4.52-.49,1.02-.29,1.49.25.61.61,1.01,1.1,1.2.49.2,1.41.02,2.77-.54,1.32-.54,2.31-.59,2.94-.11.63.47,1.17,1.23,1.6,2.27l7.05,17.09,4.06,9.84,7.06,17.11c.36.88.48,1.72.34,2.53s-.84,1.56-2.14,2.29c-1.29.72-2.01,1.31-2.15,1.77-.14.46-.12.93.09,1.4.4.98,1.58,1.12,3.56.43,1.97-.69,9.21-3.61,21.7-8.77,7.87-3.25,13.23-7.32,16.09-12.2,2.86-4.89,3.29-9.77,1.28-14.65ZM621.17,887.45c-.65-1.57-.59-2.85.18-3.82.77-.98,2.54-2.04,5.29-3.17,3.56-1.47,6.8-1.89,9.72-1.27,2.92.62,4.95,2.34,6.11,5.13,1.21,2.93,1.01,5.75-.57,8.44-1.6,2.7-4.13,4.77-7.61,6.2-2.49,1.03-4.4,1.54-5.73,1.55-1.33,0-2.4-1-3.22-2.99l-4.15-10.08ZM661.79,921.58c-2.41,4.09-6.59,7.35-12.5,9.8-2.75,1.13-4.67,1.82-5.79,2.08-1.11.26-1.94.15-2.51-.31-.57-.47-1.17-1.48-1.82-3.05l-8.62-20.91s-.02-.06-.03-.09c-.05-.12-.09-.25-.15-.37-.34-1.1.02-2.23,1.07-3.37,1.14-1.24,2.95-2.36,5.44-3.38,5.57-2.3,10.78-2.88,15.64-1.77,4.86,1.13,8.19,3.87,9.99,8.23,1.93,4.68,1.68,9.06-.72,13.15Z"/>
      <path class="cls-1" d="M702.1,902.97c.65-.37,1.15-.23,1.5.39.44.78-.02,2.31-1.38,4.6-1.36,2.28-3.02,3.98-5,5.1-1.35.76-3.07,1.12-5.13,1.08s-3.68-.64-4.84-1.78c-1.16-1.15-2.74-3.5-4.74-7.07l-4.18-7.6c-1.14-2.03-2.73-2.73-4.75-2.08-1.17.39-1.95.57-2.35.54-.4-.03-.75-.32-1.07-.88-.23-.41-.31-.82-.25-1.24.06-.42.28-.74.66-.95.35-.2,1.14-.48,2.36-.85,1.22-.37,1.98-.64,2.28-.81.35-.2,1.02-.73,1.99-1.59.98-.86,1.6-1.37,1.88-1.53.18-.1.44-.13.79-.1.35.03.6.14.75.32.15.18,1.18,1.89,3.09,5.14,1.91,3.25,3.64,6.25,5.2,9.01,1.19,2.11,2.12,3.59,2.8,4.45.68.86,1.58,1.36,2.7,1.51,1.12.15,2.33-.14,3.62-.88.97-.55,1.81-1.43,2.5-2.65.69-1.22,1.22-1.92,1.56-2.12ZM697.32,878.01c.88-.5,1.67-.13,2.36,1.1,1.37,2.44,3.41,5.97,6.11,10.6,2.7,4.63,4.51,7.75,5.42,9.36,3.17,5.63,4.78,10.02,4.83,13.18.05,3.16-.4,5.64-1.36,7.44-.96,1.8-2.52,3.31-4.69,4.52-1.84,1.03-3.44,1.59-4.81,1.66-1.37.08-2.17-.1-2.41-.53-.11-.2-.14-.48-.07-.83s.24-.61.52-.76c.2-.11.68-.22,1.44-.31.76-.09,1.53-.36,2.3-.8,1.41-.79,2.52-2.04,3.33-3.73.81-1.7.95-3.48.41-5.35-.54-1.87-1.74-4.45-3.59-7.74-6.63-11.78-10.35-18.32-11.16-19.61-.81-1.29-2.2-1.58-4.17-.85-1.97.73-3.21.64-3.73-.28-.53-.94-.15-1.77,1.13-2.5.43-.24,1.24-.6,2.45-1.08s2.18-.93,2.91-1.34c.56-.31,1.09-.71,1.61-1.2.52-.49.91-.81,1.16-.95Z"/>
      <path class="cls-1" d="M772.62,838.44l1.01.39c.13-.11.05-.49-.25-1.15l-15.25-35.67c-.41-.98-.82-1.71-1.24-2.19-1.01-1.19-2.22-1.18-3.62.01-.64.54-1.32.84-2.05.9-.73.06-1.28-.14-1.67-.6-.46-.54-.59-1.18-.37-1.9.21-.72.67-1.39,1.37-1.98.33-.28,1.01-.7,2.03-1.27,1.03-.57,2-1.25,2.92-2.03.59-.5,1.43-1.37,2.52-2.6,1.09-1.23,1.94-2.1,2.55-2.63,1.49-1.27,2.69-1.37,3.59-.3.48.57.61,1.19.37,1.87-.23.68-.58,1.22-1.04,1.62-1.01.86-1.67,2.07-1.98,3.65-.31,1.57-.12,3.16.57,4.77,8.84,19.96,16.14,36.84,21.89,50.63l.78,1.72c.4.87.31,1.55-.26,2.03-.31.26-.7.37-1.19.33-.49-.04-1.33-.42-2.51-1.15l-37.62-22.84c-.86-.52-1.34-.73-1.45-.64s.03.6.43,1.51l17.7,39.79c.57,1.29.84,2.15.8,2.59-.04.43-.22.78-.52,1.04-.46.39-.89.51-1.31.35-.42-.16-1.21-.59-2.37-1.3l-47.64-28.97c-1.44-.85-2.69-1.35-3.74-1.5s-2.13.12-3.22.78c-1.1.67-1.88,1.02-2.34,1.05-.46.03-.95-.25-1.46-.85-.96-1.13-.67-2.36.89-3.68.53-.45,1.33-.97,2.42-1.58,1.09-.6,2.24-1.42,3.44-2.45.92-.78,1.83-1.73,2.72-2.86.9-1.12,1.52-1.83,1.87-2.13.79-.67,1.58-1.07,2.39-1.19s1.45.1,1.93.67c.89,1.04.59,2.25-.89,3.63-1.15,1.05-1.41,1.95-.77,2.7.3.35,1.04.86,2.21,1.53,5.31,2.95,16.54,9.73,33.67,20.34.61.36.96.49,1.07.4s.03-.42-.23-1l-18.35-41.78c-.42-.89-.65-1.52-.69-1.88-.04-.36.1-.68.43-.96.51-.43,1.31-.3,2.42.38l40.03,24.42Z"/>
      <path class="cls-1" d="M794.08,793.93c3.13-3.62,7.1-5.7,11.92-6.24,4.82-.54,8.85.59,12.09,3.4,3.64,3.15,5.49,7,5.56,11.56s-1.77,8.99-5.51,13.3c-2.94,3.4-6.75,5.45-11.43,6.14-4.68.7-8.76-.46-12.22-3.45-3.31-2.87-5.19-6.57-5.62-11.12-.43-4.55,1.31-9.08,5.21-13.59ZM815.88,812.74c2.17-2.51,3-5.29,2.48-8.35s-2.16-5.79-4.93-8.18c-2.73-2.36-5.65-3.49-8.78-3.4-3.13.09-5.76,1.37-7.89,3.84-2.19,2.53-3.03,5.23-2.53,8.11.5,2.88,2.11,5.48,4.81,7.82,2.99,2.58,6.02,3.86,9.11,3.82,3.08-.04,5.66-1.26,7.74-3.66Z"/>
      <path class="cls-1" d="M835.25,782.69c.63.46,1.28.69,1.96.69.68,0,1.52-.49,2.53-1.46s1.74-1.48,2.2-1.52c.46-.03.9.1,1.33.42.75.56.71,1.4-.13,2.54-.51.7-1.37,1.67-2.55,2.91-1.19,1.24-2.04,2.21-2.55,2.91-.48.65-1.1,1.67-1.85,3.05s-1.37,2.4-1.85,3.05c-.69.93-1.23,1.45-1.64,1.56-.41.11-.8.03-1.18-.25-.38-.28-.61-.62-.71-1.03-.1-.41.2-1.27.89-2.57.69-1.3.87-2.35.55-3.14-.33-.8-.88-1.48-1.67-2.07l-37.51-27.69c-.81-.6-1.66-.94-2.55-1.02-.89-.08-1.9.35-3.03,1.31-1.13.95-1.92,1.44-2.37,1.45-.45.01-.84-.11-1.2-.37-.35-.26-.49-.66-.42-1.2.07-.54.26-1.02.57-1.44.27-.37.75-.87,1.43-1.5.68-.63,1.15-1.12,1.41-1.47.29-.39.66-1.04,1.11-1.93.44-.89.81-1.54,1.1-1.93.55-.74,1.15-1.15,1.8-1.2.65-.06,1.49.29,2.51,1.04l41.82,30.87Z"/>
      <path class="cls-1" d="M815.7,747.85c-2.71-1.76-4.74-3.48-6.11-5.16-1.37-1.68-2.36-3.67-2.99-5.95-.63-2.29-.92-4.64-.87-7.06.04-2.42.23-3.89.56-4.4.22-.34.81-.2,1.77.43.12.08.22.47.29,1.17.22,3.2,1.24,5.96,3.06,8.28,1.82,2.32,4.15,4.4,6.97,6.23l11.77,7.65c.29.19.56.09.81-.3.11-.17.34-.6.69-1.3s.72-1.35,1.12-1.96c.91-1.4,1.84-1.79,2.8-1.17.46.3.68.77.65,1.41-.03.63-.25,1.27-.66,1.89-1.51,2.32-1.33,4.09.55,5.31l12.55,8.16c1.2.78,2.01,1.15,2.43,1.11.42-.04.9-.13,1.46-.27.55-.14,1.27-.74,2.16-1.79.89-1.05,1.54-1.63,1.96-1.74.42-.11.82-.03,1.21.22.95.62.98,1.63.06,3.04-.54.82-1.33,1.78-2.38,2.87s-1.98,2.25-2.78,3.49c-.5.78-1.1,1.95-1.77,3.53-.68,1.57-1.14,2.54-1.37,2.9-.99,1.53-2.02,1.95-3.07,1.26-.34-.22-.55-.51-.63-.88-.08-.36.15-1.1.7-2.23.54-1.12.81-2.03.8-2.73,0-.69-.23-1.24-.67-1.65-.44-.4-1.45-1.12-3.04-2.15l-11.57-7.53c-1.73-1.12-3.29-.61-4.69,1.54-1.08,1.67-2.15,2.16-3.2,1.48-.95-.62-.88-1.78.22-3.47.39-.6.81-1.16,1.24-1.67.43-.51.69-.82.77-.94.19-.29.14-.53-.15-.72l-10.62-6.91Z"/>
      <path class="cls-1" d="M845.78,737.3c-.92-.47-1.78-.56-2.58-.27s-1.32.69-1.58,1.21c-.78,1.54-1.66,2.07-2.62,1.58-1.12-.57-1.4-1.41-.83-2.52.16-.31.55-.86,1.18-1.66.63-.8,1.07-1.43,1.3-1.89.31-.62.56-1.3.74-2.03.18-.74.33-1.22.45-1.45.35-.7.76-1.07,1.23-1.13.47-.06,1.96.49,4.48,1.64,2.52,1.15,5.41,2.56,8.67,4.22l6.67,3.49c1.18.6,1.96.91,2.32.92s.81-.15,1.34-.48c.52-.33.99-.8,1.39-1.4.4-.6.77-1.01,1.09-1.22.32-.21.75-.17,1.3.1.91.46,1.03,1.35.37,2.67-.48.95-1.07,1.87-1.76,2.75-.69.88-1.28,1.8-1.76,2.75-.39.77-.78,1.77-1.16,2.99s-.71,2.11-1,2.68c-.73,1.44-1.52,1.95-2.35,1.53-.63-.32-.97-.66-1.03-1.03-.06-.37.05-.94.33-1.7.28-.76.37-1.45.28-2.07-.09-.61-.37-1.11-.82-1.48-.45-.38-1.48-.97-3.07-1.78l-12.58-6.4ZM854.62,719.72c-.56-.29-1.17-.28-1.82.02-.65.3-1.13.74-1.43,1.33-.65,1.28-.69,3.16-.13,5.64.37,1.48.44,2.44.2,2.91-.34.67-.8.85-1.39.55-1.31-.67-2.22-2.64-2.74-5.93-.51-3.28-.28-5.89.7-7.82.84-1.64,2.15-2.79,3.95-3.43,1.8-.64,3.49-.55,5.09.26l15.53,8c.8.41,1.6.47,2.4.2.8-.27,1.39-.78,1.77-1.53.67-1.31,1.52-1.7,2.56-1.17.91.46,1.02,1.38.33,2.74-.08.15-.55.88-1.42,2.17-.87,1.29-1.54,2.4-2.01,3.33-.79,1.55-1.35,2.9-1.7,4.05-.34,1.15-.59,1.89-.75,2.2-.24.46-.59.79-1.07.99-.48.2-.95.17-1.42-.07-.73-.37-.87-1.01-.41-1.91.42-.82.55-1.73.39-2.71-.16-.99-.77-1.75-1.82-2.28l-14.81-7.53ZM863.58,702.11c-.56-.29-1.17-.28-1.82.02-.65.3-1.13.74-1.43,1.33-.52,1.02-.58,2.58-.17,4.68.41,2.09.49,3.38.24,3.87-.16.31-.39.53-.71.68-.32.14-.6.15-.86.02-1.16-.59-2.04-2.46-2.65-5.62-.61-3.16-.32-5.9.87-8.24,1.38-2.72,3.48-4.01,6.27-3.85.88,0,4.77,1.75,11.68,5.26l6.51,3.41c.82.42,1.55.51,2.18.29.63-.23,1.27-.75,1.91-1.55.64-.81,1.13-1.25,1.47-1.31.35-.07.69-.01,1.03.16.96.49,1.13,1.37.48,2.63-.09.18-.57.91-1.43,2.19-.86,1.28-1.53,2.4-2.02,3.35-.48.95-.92,2.04-1.29,3.26s-.76,2.2-1.14,2.95c-.24.46-.59.79-1.07.99s-.95.17-1.42-.06c-.81-.41-.97-1.24-.47-2.5.49-1.25.58-2.2.26-2.85-.32-.65-.86-1.17-1.63-1.56l-14.81-7.53Z"/>
      <path class="cls-1" d="M868.34,666.92c1.62-4.5,4.58-7.87,8.88-10.11s8.47-2.63,12.51-1.17c4.53,1.63,7.64,4.56,9.34,8.79,1.69,4.23,1.58,9.02-.36,14.39-1.52,4.23-4.34,7.51-8.46,9.84-4.12,2.33-8.33,2.72-12.65,1.17-4.12-1.48-7.2-4.27-9.24-8.36-2.03-4.09-2.04-8.94-.02-14.55ZM895.45,676.64c1.12-3.12.9-6.01-.69-8.68-1.58-2.67-4.1-4.62-7.54-5.86-3.39-1.22-6.53-1.22-9.42-.01-2.89,1.21-4.88,3.35-5.99,6.41-1.13,3.15-.95,5.97.56,8.47,1.5,2.5,3.94,4.36,7.3,5.57,3.72,1.34,7.01,1.44,9.87.29,2.86-1.14,4.83-3.21,5.91-6.19Z"/>
      <path class="cls-1" d="M879.68,629.84c1.18-4.64,3.8-8.28,7.87-10.92,4.06-2.64,8.18-3.43,12.34-2.37,4.67,1.19,8.05,3.8,10.14,7.85s2.44,8.83,1.03,14.36c-1.11,4.36-3.6,7.9-7.48,10.61-3.87,2.72-8.03,3.51-12.48,2.38-4.25-1.08-7.58-3.56-10-7.43-2.42-3.87-2.89-8.7-1.42-14.48ZM907.59,636.9c.82-3.21.31-6.07-1.52-8.58-1.83-2.5-4.52-4.21-8.07-5.11-3.49-.89-6.62-.59-9.38.89-2.76,1.48-4.54,3.8-5.34,6.96-.83,3.24-.37,6.03,1.37,8.38,1.74,2.35,4.34,3.96,7.8,4.84,3.83.97,7.11.75,9.85-.66,2.74-1.41,4.5-3.66,5.28-6.73Z"/>
      <path class="cls-1" d="M894.16,604.91c-1.05-.16-1.87-.07-2.46.26-.59.33-1.1,1.14-1.52,2.42s-1.12,1.84-2.07,1.7c-.4-.06-.77-.35-1.09-.87-.32-.52-.43-1.15-.31-1.89.05-.32.23-.85.55-1.61.32-.76.52-1.39.6-1.91.05-.31.07-1.05.07-2.21,0-1.16.02-1.88.07-2.16.09-.57.38-.94.89-1.09s1.47-.14,2.9.04c2.37.3,4.9.66,7.58,1.06l12.15,2.1c.88.13,1.44.14,1.66.03.22-.11.53-.41.92-.89.39-.48.74-1.12,1.03-1.92.3-.8.61-1.29.95-1.47s.71-.24,1.11-.18c.95.15,1.32.96,1.09,2.45-.16,1.03-.41,2.07-.76,3.13-.35,1.06-.6,2.12-.76,3.17-.13.86-.22,1.98-.27,3.36s-.12,2.4-.22,3.06c-.22,1.46-.87,2.11-1.93,1.94-.46-.07-.82-.25-1.07-.56-.25-.3-.34-.88-.27-1.75.09-.98.04-1.6-.15-1.86-.58-.76-1.12-1.26-1.61-1.51-.49-.25-1.53-.49-3.12-.74l-13.96-2.11ZM914.56,581.18c1.23.19,2.06.1,2.51-.25s.87-1.05,1.28-2.08c.4-1.03.94-1.5,1.61-1.4.9.14,1.27.73,1.11,1.79-.03.2-.21,1.05-.54,2.55-.33,1.5-.57,2.76-.73,3.79-.26,1.71-.37,3.17-.34,4.38.04,1.2.03,1.98-.02,2.32-.08.51-.32.97-.74,1.36-.41.39-.87.55-1.36.47-.38-.06-.7-.3-.98-.72-.28-.42-.38-.87-.3-1.36.14-.91,0-1.76-.42-2.56-.42-.79-1.15-1.27-2.21-1.43-6.86-1.04-11.1-1.72-12.72-2.06-1.62-.33-2.53-.51-2.73-.54-2.22-.34-3.48.51-3.79,2.55-.13.88.35,2.23,1.44,4.06,1.09,1.83,1.59,3.08,1.49,3.76-.03.23-.22.46-.55.7s-.66.33-.98.29c-1.01-.15-2.35-1.69-4-4.62-1.66-2.93-2.29-5.64-1.92-8.14.22-1.48.8-2.7,1.71-3.67.92-.97,1.98-1.54,3.17-1.72,1.19-.18,2.83-.12,4.91.2l2.73.46,12.36,1.87Z"/>
    </g>
    <g>
      <path class="cls-1" d="M286.27,162.9c2.22,3.5,6.1,4.45,11.63,2.85,1.39-.4,2.5-.55,3.34-.46.84.09,1.65.75,2.43,1.98.41.64.38,1.44-.08,2.38-.46.95-1.13,1.7-2,2.25-.93.59-2.32,1.16-4.18,1.72-1.86.56-3.28,1.15-4.25,1.77-1.12.71-2.39,1.82-3.82,3.34-1.43,1.52-2.43,2.46-3.02,2.83-.68.43-1.51.61-2.47.54-.97-.07-1.6-.35-1.91-.84-.49-.78-.98-1.01-1.47-.71-.34.22-.67.67-.99,1.34-3.35,6.89-8.21,12.36-14.59,16.4-3.02,1.91-6.89,3.27-11.6,4.07-4.71.8-9.22.29-13.51-1.53-4.29-1.82-7.95-5.12-10.97-9.89-3.21-5.07-3.63-11.08-1.26-18.04,2.37-6.96,7.37-12.86,15.01-17.69,2.58-1.63,5.86-2.71,9.86-3.22,4-.52,6.48-.02,7.43,1.49.46.73.52,1.52.16,2.35-.36.84-1,1.55-1.92,2.14-.63.4-2.15.75-4.56,1.04-2.41.3-4.58,1.06-6.53,2.29-4,2.53-6.56,5.8-7.7,9.83-1.14,4.02-.46,8,2.03,11.93,2.89,4.57,6.62,7.12,11.2,7.66,4.57.54,8.83-.44,12.78-2.94,3.56-2.25,6.09-5.49,7.61-9.73,1.52-4.23,1.04-8.3-1.43-12.2l-12.54-19.8c-1.88-2.97-4.39-4.76-7.53-5.36-3.14-.6-6.36.14-9.67,2.23-4.23,2.68-7.49,6.62-9.78,11.82-.77,1.79-1.41,2.83-1.89,3.14-1.17.74-2.35,1.07-3.57.98-1.21-.08-2.13-.62-2.74-1.59-1.51-2.39-.61-5.79,2.7-10.21,3.31-4.42,7.55-8.26,12.71-11.53,6.38-4.04,12.54-5.69,18.47-4.95,5.93.74,10.3,3.33,13.1,7.75l15.52,24.52Z"/>
      <path class="cls-1" d="M301.29,118c.53,1.22,1.63,2.21,3.32,2.99,1.68.78,6.28,1.45,13.8,2.02,7.52.57,13.01,1.94,16.49,4.11,3.48,2.17,5.97,4.98,7.46,8.42,2.32,5.35,1.93,10.58-1.16,15.7-3.09,5.11-8.19,9.21-15.27,12.28-3.92,1.7-8.19,2.53-12.82,2.49-4.63-.03-7.33-.92-8.08-2.67-.62-1.44-1.5-3.16-2.62-5.17-1.12-2.01-1.96-3.65-2.51-4.93-1.13-2.61-.49-4.43,1.92-5.48.7-.3,1.46-.29,2.31.04.84.33,2.61,1.87,5.3,4.63,2.69,2.76,5.21,4.36,7.55,4.79,2.34.43,4.64.16,6.9-.82,2.78-1.21,4.75-3.15,5.89-5.85,1.14-2.69,1.08-5.49-.17-8.39-.82-1.9-2.26-3.4-4.3-4.49-2.04-1.09-6.61-1.76-13.7-2.01-7.09-.25-12.1-1.33-15.03-3.23-2.92-1.9-5.06-4.41-6.41-7.53-1.79-4.12-1.37-8.41,1.25-12.88,2.62-4.46,6.47-7.79,11.55-10,4.23-1.83,8.68-2.89,13.34-3.16,4.66-.27,7.35.42,8.07,2.08.44,1.01,1.08,2.2,1.93,3.59.85,1.39,1.48,2.53,1.87,3.43.48,1.11.62,2.21.43,3.3-.2,1.09-.72,1.82-1.58,2.19-1.23.53-2.24.61-3.01.21-.77-.39-1.71-1.27-2.79-2.63-1.09-1.36-2.3-2.29-3.64-2.79-1.34-.5-2.95-.78-4.85-.84-1.9-.06-3.82.32-5.76,1.17-1.94.84-3.52,2.26-4.74,4.27s-1.52,3.72-.9,5.14Z"/>
      <path class="cls-1" d="M371.8,123.6c1.37,4.65,2.46,7.56,3.28,8.73.82,1.17,1.8,1.59,2.95,1.25,1.8-.53,3.72-2.18,5.76-4.94,2.04-2.76,3.51-4.28,4.41-4.54.73-.22,1.48-.07,2.24.44.76.51,1.28,1.24,1.56,2.19.46,1.57-.96,4.77-4.26,9.58-3.3,4.82-6.61,7.71-9.93,8.69-8.74,2.57-14.99-2.55-18.76-15.37l-9.38-31.89c-.31-1.05-.61-1.57-.91-1.58-.3,0-1.86.41-4.68,1.24-2.21.65-3.8.77-4.76.35-.96-.42-1.63-1.24-1.99-2.47-.31-1.06-.24-1.9.2-2.52.45-.62,1.45-1.41,3-2.38,1.55-.97,2.69-1.9,3.41-2.81.73-.9,1.61-2.6,2.65-5.1,1.04-2.5,1.37-5.67.99-9.53-.38-3.85-1.58-9.21-3.6-16.07-.96-3.26-.54-5.16,1.25-5.69,2.01-.59,3.41-.51,4.18.26.77.77,1.48,2.23,2.11,4.38l8.15,27.71c.33,1.11,1.21,1.45,2.65,1.03l11.78-3.46c2.38-.7,3.87-.01,4.48,2.06.71,2.41-.65,4.12-4.08,5.12l-10.37,3.05c-.77.23-1.21.49-1.3.79-.09.3,0,.94.3,1.94l8.68,29.54Z"/>
      <path class="cls-1" d="M446.96,94.13c1.31-.18,2.17-.52,2.56-1.04.4-.51.51-1.37.35-2.56-.59-4.36-2.85-8.21-6.76-11.55-3.92-3.34-9.3-4.54-16.16-3.61-4.74.64-9.34,3.56-13.78,8.76-4.44,5.19-6.1,11.92-4.98,20.19.82,6.05,4.23,11.12,10.21,15.21s12.29,5.69,18.91,4.79c5.02-.68,10.22-2.99,15.61-6.92,2.06-1.5,3.43-2.3,4.12-2.39,1.03-.14,1.88.04,2.56.54.68.5,1.08,1.18,1.19,2.05.28,2.09-2.53,5.04-8.44,8.87-5.91,3.83-12.21,6.2-18.89,7.1-9.88,1.34-18.66-.9-26.31-6.73-7.66-5.82-12.12-13.39-13.38-22.71-1.16-8.51,1.55-16.3,8.13-23.36,6.58-7.06,14.46-11.22,23.66-12.47,11.94-1.62,21.3.22,28.07,5.53,6.77,5.31,10.74,12.22,11.89,20.73.25,1.83-.05,3.02-.91,3.57-.86.55-2.51,1-4.96,1.33l-39.27,5.33c-3.2.43-4.95-.53-5.27-2.91-.31-2.25,1.2-3.61,4.51-4.06l27.34-3.71Z"/>
      <path class="cls-1" d="M564.39,126.24c2.92.36,5.24-.14,6.95-1.49s2.71-3.22,3-5.61c.27-2.16.96-3.82,2.09-4.99,1.13-1.16,2.35-1.66,3.67-1.5,1.32.16,2.34.9,3.08,2.21.74,1.31.99,2.97.74,4.97-.25,2-.42,4.17-.54,6.51-.11,2.34-.22,3.94-.33,4.8-.29,2.35-.81,3.84-1.55,4.47-.74.63-2.49.78-5.24.45l-69.45-8.52c-4.86-.6-8.15-1.37-9.86-2.33-1.71-.96-2.48-2.17-2.3-3.64.28-2.32,2.06-3.28,5.32-2.88,4.18.51,6.98.17,8.4-1.02,1.42-1.19,2.31-3.25,2.67-6.16l9.64-78.55c1.04-8.47,1.58-14.1,1.64-16.88.05-2.78-.45-4.63-1.5-5.54-1.05-.91-3.29-1.58-6.73-2-2.06-.25-3.6-.84-4.62-1.76s-1.46-1.98-1.31-3.2c.13-1.1.74-2.01,1.82-2.73,1.08-.72,2.36-.99,3.85-.81l66.1,8.11c2.63.32,4.28,1.08,4.95,2.26.67,1.19,1.06,2.86,1.17,5.02.11,2.16-.13,5.68-.73,10.54-.27,2.23-1.35,3.23-3.24,3-1.09-.13-2.01-.58-2.75-1.35-.75-.76-1.46-2.55-2.14-5.35-.67-2.8-1.5-4.64-2.46-5.52-.97-.88-2.14-1.4-3.52-1.57l-23.57-2.89c-3.96-.49-6.52-.23-7.69.76s-1.89,2.61-2.17,4.84l-2.23,18.16c-.52,4.25-.29,7.11.69,8.6.98,1.49,3.22,2.45,6.72,2.88l22.89,2.81c1.89.23,3.42-.35,4.58-1.75,1.16-1.4,1.86-3.04,2.09-4.93.12-.97.62-1.74,1.5-2.3.88-.56,1.87-.77,2.95-.64,1.14.14,2.04.63,2.7,1.46.65.83.9,1.93.73,3.3-.15,1.2-.55,2.9-1.2,5.11-.65,2.21-1.06,4.03-1.23,5.45-.27,2.17-.3,4.48-.11,6.94.19,2.46.26,3.94.19,4.45-.16,1.31-.72,2.35-1.69,3.1-.96.75-2.02,1.06-3.16.92-1.2-.15-2.14-.8-2.81-1.96-.67-1.16-.89-2.65-.67-4.48.27-2.17-.12-3.79-1.15-4.85-1.03-1.06-2.87-1.75-5.51-2.07l-22.72-2.79c-2.07-.25-3.81-.05-5.23.62-1.42.67-2.23,1.8-2.43,3.41l-6.73,54.85c-.35,2.86.14,4.87,1.49,6.02,1.34,1.15,3.79,1.95,7.34,2.38l29.58,3.63Z"/>
      <path class="cls-1" d="M645.41,109.42c.98-.96,1.71-2.15,2.18-3.58.54-1.65-.08-3.03-1.87-4.14-1.79-1.11-2.94-1.99-3.45-2.65-.51-.66-.58-1.57-.19-2.74.47-1.44,1.14-2.25,1.99-2.44.85-.18,2.05-.02,3.58.49,1.15.38,2.51,1.05,4.08,2.03s3.56,1.85,5.98,2.65c2.31.76,4.57,1.24,6.78,1.46,2.21.21,3.81.48,4.8.81,2.8.92,3.88,2.35,3.24,4.3-.48,1.44-.97,2.25-1.48,2.42-.51.17-2.19.11-5.03-.19-2.85-.3-4.84-.38-5.98-.23-1.14.14-2.45.75-3.92,1.81-1.47,1.07-3.41,2.84-5.81,5.34l-29.98,31.62c-.18.18-.48.54-.9,1.07-1.74,2.1-3.27,2.94-4.6,2.5-1.16-.38-1.93-1.97-2.3-4.76l-6.55-47.88c-.36-2.6-1.32-4.97-2.9-7.09-1.58-2.13-3.24-3.48-4.99-4.05-1.92-.63-3.28-1.46-4.09-2.5s-1.05-2.05-.73-3.05c.75-2.27,2.52-2.95,5.32-2.03,2.63.87,5.16,1.96,7.59,3.27,2.43,1.31,4.35,2.21,5.78,2.68,1.7.56,4.12,1.1,7.27,1.62,3.14.52,5.43,1.01,6.86,1.48,1.98.65,3.3,1.38,3.98,2.19.68.81.81,1.82.41,3.04-.24.72-.72,1.27-1.45,1.65-.73.37-2.14.46-4.23.26-2.09-.2-3.44-.16-4.05.13-.61.29-1.01.73-1.21,1.33-.18.55-.11,2.18.21,4.89l3.46,27.27c.2,1.4.53,2.18.96,2.32.6.2,1.52-.38,2.75-1.75l18.5-19.53Z"/>
      <path class="cls-1" d="M713.98,154.56c1.16.64,2.06.86,2.68.68.62-.18,1.22-.8,1.8-1.85,2.11-3.86,2.58-8.3,1.41-13.31-1.17-5.01-4.8-9.17-10.87-12.49-4.2-2.29-9.63-2.67-16.29-1.12-6.66,1.54-11.99,5.98-15.99,13.3-2.93,5.36-3.19,11.46-.8,18.3,2.39,6.85,6.52,11.87,12.38,15.07,4.44,2.43,10,3.66,16.68,3.69,2.55.01,4.13.19,4.73.52.91.5,1.49,1.15,1.74,1.95.25.8.16,1.59-.26,2.36-1.01,1.85-5.03,2.56-12.06,2.14-7.03-.42-13.5-2.25-19.42-5.48-8.76-4.78-14.49-11.79-17.2-21.02-2.71-9.23-1.81-17.97,2.69-26.22,4.12-7.54,10.92-12.2,20.4-13.99,9.48-1.78,18.3-.45,26.44,4,10.58,5.78,17.01,12.81,19.32,21.1,2.31,8.29,1.4,16.2-2.72,23.74-.89,1.62-1.83,2.4-2.85,2.34s-2.61-.69-4.78-1.87l-34.78-19c-2.83-1.55-3.67-3.37-2.52-5.47,1.09-2,3.1-2.2,6.04-.59l24.21,13.22Z"/>
      <path class="cls-1" d="M752.37,165.9c1.35-1.65,2.03-3.15,2.06-4.5.03-1.35-.84-3.05-2.6-5.08-1.76-2.03-2.03-3.8-.81-5.29.52-.63,1.38-.96,2.6-.99s2.41.44,3.57,1.39c.49.4,1.23,1.26,2.2,2.58.98,1.32,1.87,2.31,2.68,2.97.49.4,1.73,1.19,3.72,2.37,1.99,1.18,3.21,1.95,3.66,2.32.9.73,1.22,1.61.98,2.64s-1.26,2.68-3.03,4.95c-2.94,3.78-6.12,7.77-9.55,11.96l-16,18.76c-1.13,1.38-1.71,2.32-1.74,2.82-.03.5.16,1.33.59,2.49.42,1.17,1.17,2.41,2.25,3.74,1.07,1.33,1.6,2.37,1.57,3.14-.03.77-.31,1.47-.82,2.1-1.22,1.49-3,1.29-5.32-.61-1.61-1.32-3.15-2.82-4.61-4.5-1.46-1.68-3.02-3.2-4.68-4.55-1.34-1.1-3.18-2.39-5.51-3.88-2.33-1.49-4-2.66-5.03-3.5-2.28-1.87-2.74-3.64-1.37-5.31.59-.72,1.27-1.15,2.04-1.27.77-.12,1.86.32,3.28,1.32,1.59,1.15,2.71,1.69,3.36,1.63,1.9-.23,3.31-.64,4.24-1.22.92-.58,2.4-2.12,4.44-4.62l17.86-21.86ZM772.4,225.17c-1.57,1.92-2.28,3.45-2.12,4.58.15,1.13.91,2.57,2.28,4.32,1.36,1.75,1.62,3.14.76,4.19-1.15,1.41-2.56,1.44-4.21.08-.31-.26-1.59-1.43-3.84-3.53-2.24-2.1-4.17-3.8-5.78-5.12-2.69-2.19-5.08-3.87-7.19-5.04-2.11-1.16-3.43-1.97-3.97-2.41-.81-.66-1.33-1.54-1.59-2.65s-.06-2.05.57-2.82c.48-.59,1.22-.9,2.23-.95,1-.05,1.89.24,2.65.86,1.43,1.17,3.04,1.8,4.83,1.88,1.79.09,3.36-.69,4.71-2.34,8.77-10.74,14.28-17.33,16.5-19.79,2.23-2.45,3.47-3.84,3.72-4.15,2.84-3.48,2.66-6.52-.53-9.13-1.37-1.12-4.19-1.68-8.45-1.66-4.26.02-6.93-.41-7.99-1.28-.35-.29-.57-.84-.64-1.66-.07-.82.1-1.47.5-1.97,1.3-1.59,5.31-2.31,12.03-2.18,6.72.13,12.05,1.8,15.97,5.01,2.32,1.89,3.83,4.12,4.56,6.69.73,2.57.64,4.97-.26,7.21-.9,2.24-2.69,4.99-5.35,8.25l-3.57,4.23-15.82,19.35Z"/>
      <path class="cls-1" d="M805.54,250.15c-3.61,3.23-5.77,5.47-6.47,6.71-.71,1.24-.66,2.31.14,3.2,1.25,1.4,3.57,2.43,6.94,3.08,3.37.65,5.37,1.33,6,2.03.51.57.7,1.31.57,2.21-.13.91-.57,1.69-1.31,2.35-1.22,1.09-4.72,1.18-10.48.27-5.77-.91-9.8-2.66-12.11-5.24-6.08-6.79-4.14-14.64,5.82-23.54l24.78-22.17c.81-.73,1.16-1.23,1.03-1.5-.13-.27-1.17-1.5-3.13-3.7-1.54-1.72-2.33-3.1-2.36-4.15-.04-1.05.42-2,1.38-2.86.83-.74,1.62-1.04,2.37-.9.75.14,1.9.7,3.44,1.69,1.54.98,2.87,1.61,4,1.88,1.13.27,3.04.33,5.75.2,2.7-.14,5.71-1.2,9.03-3.2,3.32-2,7.64-5.38,12.97-10.15,2.54-2.27,4.42-2.71,5.67-1.32,1.4,1.57,1.92,2.86,1.56,3.89-.36,1.02-1.38,2.29-3.05,3.79l-21.53,19.26c-.86.77-.79,1.71.21,2.83l8.19,9.15c1.65,1.85,1.68,3.49.06,4.93-1.87,1.67-4,1.18-6.38-1.49l-7.21-8.06c-.54-.6-.96-.88-1.27-.84-.31.04-.85.41-1.62,1.1l-22.95,20.53Z"/>
    </g>
    <g>
      <path class="cls-1" d="M202.64,246.28c-34.67,37.89-62.04,80.94-81.4,128.1-.24.57-24.02,59.8-29.68,116.32-21.91,218.89,138.34,414.81,357.24,436.72,59.04,5.91,117.09-1.05,172.56-20.69l4.06,9.84c-57.1,20.31-116.87,27.51-177.67,21.42-108.86-10.9-206.97-63.54-276.24-148.22-69.27-84.68-101.41-191.27-90.51-300.13,5.81-58.08,29.41-116.81,30.42-119.28,2.05-5.03,4.22-10.01,6.46-14.95,2.25-4.96,4.59-9.87,7.02-14.74s4.94-9.68,7.55-14.45c2.6-4.76,5.29-9.48,8.07-14.15s5.64-9.28,8.59-13.84c2.95-4.56,5.99-9.07,9.1-13.53,3.12-4.46,6.33-8.86,9.61-13.2s6.67-8.65,10.11-12.87c3.46-4.24,7-8.42,10.61-12.54,3.48-3.96,7.02-7.88,10.65-11.71.07-.08.15-.16.19-.26.06-.14.04-.29.02-.44-.49-3.4-3.09-5.78-5.32-8.17l-3.64-3.91-4.9-5.27c-1.95-2.1-3.91-4.2-5.86-6.29l-6.51-7c-2.29-2.46-4.58-4.92-6.87-7.38l-6.93-7.44-6.68-7.18c-2.04-2.2-4.09-4.39-6.13-6.59-1.76-1.89-3.52-3.79-5.29-5.68-1.38-1.48-2.76-2.96-4.14-4.45l-2.69-2.89-.94-1.01c-3.81-4.1-8.47-3.58-13.98,1.56-3.57,3.33-5.36,6.5-5.38,9.52-.05,1.8.61,3.86,1.98,6.18,1.38,2.32,2.02,3.88,1.9,4.65-.11.78-.48,1.47-1.12,2.06-.69.64-1.51,1.07-2.45,1.29-.96.22-1.69.06-2.21-.49-4.27-4.61-7.22-8.57-8.85-11.91-1.61-3.34-1.66-5.72-.14-7.13l49.19-45.8c1.44-1.34,3.98-.92,7.66,1.25,3.68,2.17,6.71,4.55,9.11,7.12,2.4,2.58,2.76,4.64,1.09,6.2-.6.56-1.32.88-2.16.96-.84.07-2.76-.62-5.75-2.11-3-1.49-5.73-1.84-8.19-1.08-2.46.77-4.71,2.09-6.72,3.98-2.86,2.66-4.31,5.25-4.36,7.78-.05,2.51,1.31,5.27,4.1,8.25l62.44,67.07c.94,1.02,2.08,1.62,3.41,1.84,1.34.21,3.25-.3,5.72-1.55,2.46-1.24,4.11-1.83,4.93-1.8.83.04,1.49.33,2.01.88,2.07,2.22,1.93,4.41-.37,6.56-1.27,1.18-3.3,2.72-6.1,4.61-2.79,1.89-4.78,3.39-5.96,4.48-.03.03-.06.05-.09.08"/>
      <path class="cls-1" d="M627.33,915.9c-.64.23-1.28.47-1.92.67l-4.06-9.84c.8-.26,1.59-.54,2.37-.83,2.62-.95,5.52.3,6.65,2.83.06.12.11.25.15.37,0,.02.02.06.03.09.94,2.74-.49,5.73-3.22,6.71Z"/>
    </g>
    <path class="cls-1" d="M900.29,585.22l-10.51-1.63c6.64-42.64,5.94-85.58-2.09-127.66-1.5-7.85-3.26-15.65-5.27-23.38-2.02-7.76-4.29-15.45-6.8-23.07-2.52-7.63-5.29-15.19-8.29-22.64-3.01-7.47-6.26-14.85-9.73-22.11-3.48-7.28-7.19-14.44-11.13-21.48-3.94-7.04-8.1-13.96-12.48-20.74-1.82-2.81-3.67-5.6-5.57-8.36s-3.56-5.67-5.73-8.06c-1.08-1.19-2.34-2.21-3.42-3.41-1.22-1.36-2.34-2.8-3.38-4.3-2.44-3.5-4.1-7.52-4.99-12.07-.89-4.55-.54-7.36,1.02-8.45,1.28-.89,2.8-2.09,4.55-3.59,1.74-1.5,3.2-2.65,4.33-3.44,2.33-1.63,4.25-1.35,5.75.8.44.63.57,1.37.43,2.26-.16.9-1.33,2.93-3.5,6.12s-3.23,5.97-3.2,8.34c.03,2.39.76,4.59,2.18,6.6,1.73,2.49,4.02,4.03,6.88,4.62,2.87.6,5.6-.02,8.2-1.83,1.7-1.18,2.88-2.88,3.55-5.1.66-2.21.42-6.82-.74-13.83-1.16-7-1.09-12.13.2-15.37,1.29-3.24,3.32-5.83,6.11-7.77,3.69-2.56,7.98-3.01,12.88-1.32,4.89,1.69,8.92,4.81,12.08,9.35,2.64,3.79,4.55,7.93,5.73,12.45,1.19,4.51,1.04,7.28-.45,8.31-.89.63-1.94,1.5-3.13,2.61-1.2,1.11-2.2,1.95-3,2.51-1,.7-2.04,1.05-3.15,1.07s-1.94-.35-2.46-1.11c-.77-1.11-1.04-2.07-.8-2.92.23-.83.9-1.92,2.02-3.25,1.12-1.35,1.79-2.72,2.01-4.12.22-1.41.18-3.06-.14-4.93-.31-1.87-1.08-3.68-2.28-5.41-1.21-1.74-2.91-3.01-5.12-3.81-2.2-.8-3.95-.75-5.22.13-1.08.76-1.84,2.03-2.27,3.84-.42,1.81-.17,6.45.75,13.92.92,7.49.68,13.15-.77,16.99-1.44,3.83-3.7,6.82-6.77,8.97-2.21,1.54-4.5,2.49-6.88,2.9,28.74,43.01,48.85,91.84,58.44,142.1,8.26,43.28,8.99,87.45,2.15,131.29Z"/>
  </g>
  <path class="cls-1" d="M620.41,385.58c-14.76,14.75-34.38,35.09-39.19,53.14-4.83,18.04-8.57,27.41-14.55,38.07s-15.35,23.47-17.17,29.98c-1.85,6.5-7.96,70.98-2.31,80.48,5.66,9.51,14.2,15.74,13.64,24.47-.57,8.75-5.72,21.04-5.79,25.69-.05,4.65,2.84,23.13-.78,27.35-3.64,4.21-19.95,13.06-19.01,18.87.93,5.81,5.97,11.1,4.38,19.7-1.58,8.61-8.78,14.97-9.51,21.61-.72,6.63,4.51,6.26,6.42,11.66,1.93,5.41.53,8.35,2.06,12.69,1.53,4.33-2.61,8.48-4.39,10.33-1.77,1.85-3.56,7.84-2.21,9.56,1.33,1.71,3.58,8.73.76,10.46-2.8,1.71-12.1.04-10.15,5.98,1.94,5.94,14.25,31.97,15.26,40.55,1,8.59-1.02,16.62.57,20.43,1.61,3.83,6.01,10.07,3.15,20.59-2.86,10.52-9.53,26.77-11.99,34.25-2.49,7.45-3.3,18.22-6.61,24.03-3.3,5.8-17.32,17.02-20.4,21.81-3.08,4.8-6.97,11.04-5.24,17.99,1.4,5.67,4.83,14.7,3.46,22.58-.3,1.76-.85,3.48-1.7,5.07-2.69,4.99-6.09,6.18-8.78,6.93-.34.09-.69.14-1.04.14-15.46-.02-31-.8-46.6-2.36-122.79-12.29-233.46-71.67-311.61-167.21-15.42-18.85-29.21-38.66-41.32-59.27-.94-1.61-.6-3.66.8-4.89,1.87-1.63,4.24-3.7,7-6.1,21.48-18.64,66.13-56.96,72.67-59.27,8.66-3.06,16.44-7.28,18.08-12.26,1.66-4.97.26-10.32,7.89-13.51,7.65-3.2,8.54-10.34,10.94-21.44,2.41-11.09,15.27-22.96,15.77-35.32.5-12.37,7.11-23.97,14.62-34.44,7.51-10.45,12.37.51,16.67-25.89,4.31-26.4,24.41-63.26,17.64-67.2-6.75-3.94-45.14-20.09-49.62-34.11-4.47-14.01-4.74-28.56-.16-32.13,4.59-3.57,28.03-17.22,41.41-16.61,13.39.62,25.63,2.13,31.49-3.36,5.86-5.49,9.17-7.14,21.41-5.62,12.24,1.52,36.43-26.57,40.49-34.34,4.08-7.77,24.07-27.05,42.68-26.82,18.63.24,29.8,6.11,34.17,4.23,4.37-1.87,70.59-72.36,77.96-81.81,7.38-9.45,22.87-29.8,33.18-33.69,10.32-3.91,26.25-2.96,35.32,11.62,9.07,14.58,10.43,32.87,6.81,45.38-2.6,8.96-5.14,25.68-6.37,34.4-.38,2.71,2.08,4.95,4.74,4.31h0c1.81-.43,3.07-2.09,2.98-3.96l-.37-7.92c-.14-3.07,3.16-5.08,5.82-3.54l4.2,2.42c1.31.76,2.93.69,4.17-.18,3.19-2.24,9.64-6.14,14.35-4.81,6.51,1.85,20.67,8.78,24.49,23.75,3.85,14.98-5.8,42.77-20.59,57.52Z"/>
</svg>